<svg width="1200" height="760" viewBox="0 0 1200 760" fill="none" xmlns="http://www.w3.org/2000/svg">
  <rect width="1200" height="760" fill="#F8FAFC"/>
  <text x="600" y="54" text-anchor="middle" font-family="Inter, Arial, sans-serif" font-size="28" font-weight="700" fill="#0F172A">
    Homepage Structure Flowchart
  </text>

  <rect x="450" y="90" width="300" height="68" rx="14" fill="#0F172A"/>
  <text x="600" y="132" text-anchor="middle" font-family="Inter, Arial, sans-serif" font-size="20" font-weight="600" fill="#FFFFFF">
    Home Route
  </text>

  <line x1="600" y1="158" x2="600" y2="198" stroke="#94A3B8" stroke-width="3"/>
  <polygon points="600,208 592,194 608,194" fill="#94A3B8"/>

  <rect x="360" y="208" width="480" height="72" rx="12" fill="#FFFFFF" stroke="#CBD5E1" stroke-width="2"/>
  <text x="600" y="252" text-anchor="middle" font-family="Inter, Arial, sans-serif" font-size="19" font-weight="600" fill="#0F172A">
    Header (Brand, Nav, CTA)
  </text>

  <line x1="600" y1="280" x2="600" y2="320" stroke="#94A3B8" stroke-width="3"/>
  <polygon points="600,330 592,316 608,316" fill="#94A3B8"/>

  <rect x="300" y="330" width="600" height="82" rx="12" fill="#FFFFFF" stroke="#CBD5E1" stroke-width="2"/>
  <text x="600" y="364" text-anchor="middle" font-family="Inter, Arial, sans-serif" font-size="19" font-weight="600" fill="#0F172A">
    Hero (Headline, Body, Buttons, Visual Panel)
  </text>
  <text x="600" y="390" text-anchor="middle" font-family="Inter, Arial, sans-serif" font-size="14" fill="#475569">
    Desktop: two-column layout | Mobile: single column
  </text>

  <line x1="600" y1="412" x2="600" y2="452" stroke="#94A3B8" stroke-width="3"/>
  <polygon points="600,462 592,448 608,448" fill="#94A3B8"/>

  <rect x="330" y="462" width="540" height="72" rx="12" fill="#FFFFFF" stroke="#CBD5E1" stroke-width="2"/>
  <text x="600" y="506" text-anchor="middle" font-family="Inter, Arial, sans-serif" font-size="19" font-weight="600" fill="#0F172A">
    Collections Section (3 Feature Cards)
  </text>

  <line x1="600" y1="534" x2="600" y2="574" stroke="#94A3B8" stroke-width="3"/>
  <polygon points="600,584 592,570 608,570" fill="#94A3B8"/>

  <rect x="300" y="584" width="600" height="92" rx="12" fill="#0F172A"/>
  <text x="600" y="620" text-anchor="middle" font-family="Inter, Arial, sans-serif" font-size="19" font-weight="600" fill="#FFFFFF">
    Footer (Brand, Address, Contact, Cloudflare Message)
  </text>
  <text x="600" y="648" text-anchor="middle" font-family="Inter, Arial, sans-serif" font-size="14" fill="#FDBA74">
    Consistent muted palette with orange accent actions
  </text>

  <rect x="900" y="206" width="250" height="204" rx="14" fill="#FFFFFF" stroke="#FDBA74" stroke-width="2"/>
  <text x="1025" y="238" text-anchor="middle" font-family="Inter, Arial, sans-serif" font-size="18" font-weight="700" fill="#9A3412">
    Responsive Behavior
  </text>
  <circle cx="922" cy="270" r="4" fill="#FB923C"/>
  <text x="936" y="275" font-family="Inter, Arial, sans-serif" font-size="14" fill="#334155">
    Desktop hero in 2 columns
  </text>
  <circle cx="922" cy="302" r="4" fill="#FB923C"/>
  <text x="936" y="307" font-family="Inter, Arial, sans-serif" font-size="14" fill="#334155">
    Mobile collapses to 1 column
  </text>
  <circle cx="922" cy="334" r="4" fill="#FB923C"/>
  <text x="936" y="339" font-family="Inter, Arial, sans-serif" font-size="14" fill="#334155">
    Header and footer remain stable
  </text>
  <circle cx="922" cy="366" r="4" fill="#FB923C"/>
  <text x="936" y="371" font-family="Inter, Arial, sans-serif" font-size="14" fill="#334155">
    Accessible contrast and spacing
  </text>
</svg>
